<svg width="24" height="24" viewBox="0 0 24 24" fill="none" xmlns="http://www.w3.org/2000/svg">
<path d="M15.2507 9.86198L18.9248 6.18794L22.5988 9.86198M15.2507 15.7417L18.9248 19.4158L22.5988 15.7417M6.7737 8.15222C7.18598 8.16565 7.59676 8.09604 7.9816 7.94754C8.36644 7.79904 8.71749 7.57467 9.01388 7.28777C9.31028 7.00088 9.54596 6.65732 9.70691 6.27752C9.86787 5.89771 9.95081 5.48942 9.95081 5.07692C9.95081 4.66442 9.86787 4.25613 9.70691 3.87633C9.54596 3.49653 9.31028 3.15297 9.01388 2.86607C8.71749 2.57918 8.36644 2.35481 7.9816 2.20631C7.59676 2.05781 7.18598 1.9882 6.7737 2.00163C5.95765 2.00163 5.17502 2.32581 4.59799 2.90284C4.02095 3.47988 3.69678 4.2625 3.69678 5.07855C3.69678 5.89461 4.02095 6.67723 4.59799 7.25427C5.17502 7.8313 5.95765 8.15548 6.7737 8.15548V8.15222Z" stroke="#7D4DE1" stroke-width="1.5" stroke-linecap="round" stroke-linejoin="round"/>
<path d="M12.1591 13.5393C12.1591 12.1112 11.5918 10.7416 10.582 9.73178C9.57219 8.72197 8.2026 8.15466 6.77451 8.15466C5.34642 8.15466 3.97682 8.72197 2.96701 9.73178C1.9572 10.7416 1.38989 12.1112 1.38989 13.5393V15.8462H3.6984L4.46682 22H9.08383L9.85062 15.8462H12.1591V13.5393Z" stroke="#7D4DE1" stroke-width="1.5" stroke-linecap="round" stroke-linejoin="round"/>
</svg>
