<svg width="24" height="25" viewBox="0 0 24 25" fill="none" xmlns="http://www.w3.org/2000/svg">
<path d="M0 24.1077L1.69536 17.9176C0.64972 16.1061 0.0995958 14.0508 0.100267 11.9455C0.102946 5.35874 5.46319 6.10352e-05 12.0501 6.10352e-05C15.2466 0.00162019 18.2467 1.24556 20.5032 3.50358C22.759 5.76159 24.0011 8.76288 24 11.9551C23.9971 18.5414 18.636 23.9009 12.0501 23.9009C12.0496 23.9009 12.0506 23.9009 12.0501 23.9009H12.045C10.0452 23.9001 8.0802 23.3985 6.33471 22.4466L0 24.1077Z" fill="white"/>
<path d="M12.0542 2.01785C6.57558 2.01785 2.12018 6.47164 2.11817 11.946C2.11735 13.822 2.64235 15.6492 3.63652 17.2302L3.87286 17.6058L2.86924 21.2695L6.6284 20.2838L6.99139 20.4989C8.51598 21.4038 10.2639 21.8823 12.0466 21.8832H12.0504C17.5247 21.8832 21.9801 17.4289 21.9824 11.9541C21.9834 9.30104 20.9513 6.80623 19.076 4.92959C17.2007 3.05295 14.7073 2.01897 12.0542 2.01785Z" fill="url(#paint0_linear_329_14390)"/>
<path fill-rule="evenodd" clip-rule="evenodd" d="M9.06346 6.95135C8.83966 6.45427 8.60421 6.4442 8.39159 6.43547C8.21746 6.42808 8.01827 6.42853 7.81931 6.42853C7.62012 6.42853 7.29671 6.50329 7.02322 6.80207C6.7495 7.10086 5.97803 7.82309 5.97803 9.29218C5.97803 10.7613 7.04806 12.1807 7.19712 12.3801C7.3464 12.5793 9.26265 15.6902 12.2977 16.8869C14.8198 17.8815 15.333 17.6837 15.8807 17.634C16.4281 17.5843 17.6472 16.9118 17.8959 16.2146C18.1448 15.5174 18.1448 14.9201 18.0702 14.7952C17.9955 14.6705 17.7965 14.596 17.4977 14.4467C17.1992 14.2975 15.7312 13.575 15.4575 13.4754C15.1838 13.3758 14.9848 13.3261 14.7856 13.6249C14.5866 13.9237 14.0148 14.596 13.8405 14.7952C13.6663 14.9946 13.4922 15.0195 13.1934 14.8702C12.8949 14.7205 11.9331 14.4056 10.7924 13.3883C9.90476 12.597 9.30563 11.6196 9.13128 11.3208C8.95716 11.022 9.1127 10.8604 9.26243 10.7116C9.39649 10.5777 9.56099 10.3629 9.7105 10.1885C9.85933 10.0142 9.90924 9.88975 10.0086 9.69078C10.1082 9.49137 10.0585 9.31702 9.98377 9.16774C9.90924 9.01846 9.3289 7.54176 9.06346 6.95135Z" fill="white"/>
<defs>
<linearGradient id="paint0_linear_329_14390" x1="11.8481" y1="3.20999" x2="11.9488" y2="20.186" gradientUnits="userSpaceOnUse">
<stop stop-color="#57D163"/>
<stop offset="1" stop-color="#23B33A"/>
</linearGradient>
</defs>
</svg>
